<svg xmlns="http://www.w3.org/2000/svg" xmlns:xlink="http://www.w3.org/1999/xlink" width="1000" height="500"><path fill="#308738" d="M0 0h1000v500H0z"/><path fill="#3081f7" d="M0 0h1000v250H0z"/><path fill="#ee162e" d="M0 160h1000v180H0z"/><path fill="#fff" d="M0 170h1000v160H0z"/><circle cx="140" cy="80" r="60" fill="#fff"/><circle cx="160" cy="80" r="60" fill="#3081f7"/><g fill="#fff" transform="matrix(2 0 0 2 272 128)"><g id="e"><g id="d"><g id="c"><g id="b"><path id="a" d="M0-6v6h3" transform="rotate(18 0 -6)"/><use href="#a" xlink:href="#a" width="100%" height="100%" transform="scale(-1 1)"/></g><use href="#b" xlink:href="#b" width="100%" height="100%" transform="rotate(72)"/></g><use href="#b" xlink:href="#b" width="100%" height="100%" transform="rotate(-72)"/><use href="#c" xlink:href="#c" width="100%" height="100%" transform="rotate(144)"/></g><use href="#d" xlink:href="#d" width="100%" height="100%" y="-24"/><use href="#d" xlink:href="#d" width="100%" height="100%" y="-48"/></g><use href="#e" xlink:href="#e" width="100%" height="100%" x="24"/><use href="#e" xlink:href="#e" width="100%" height="100%" x="48"/><use href="#d" xlink:href="#d" width="100%" height="100%" x="-48"/><use href="#d" xlink:href="#d" width="100%" height="100%" x="-24"/><use href="#d" xlink:href="#d" width="100%" height="100%" x="-24" y="-24"/></g></svg>
